<svg version="1.2" xmlns="http://www.w3.org/2000/svg" viewBox="0 0 448 512" width="448" height="512">
	<title>git-alt-svg</title>
	<style>
		.s0 { fill: #aaaaaa } 
	</style>
	<path id="Layer" class="s0" d="m439.6 236.1l-195.6-195.7c-2.7-2.6-5.9-4.8-9.4-6.2-3.5-1.5-7.2-2.2-11-2.2-3.8 0-7.5 0.7-11 2.2-3.5 1.4-6.7 3.6-9.4 6.2l-40.7 40.7 51.5 51.5c27.1-9.1 52.7 16.8 43.4 43.7l49.7 49.6c34.2-11.8 61.2 31 35.5 56.7-26.5 26.5-70.2-2.8-56-37.3l-46.4-46.3v121.8c25.3 12.6 22.3 41.9 9.1 55-3.2 3.2-7 5.8-11.1 7.5-4.2 1.7-8.7 2.6-13.2 2.6-4.5 0-8.9-0.9-13.1-2.6-4.2-1.7-8-4.3-11.2-7.5-17.5-17.6-11-46.9 11.3-56v-123c-20.8-8.5-24.6-30.7-18.6-45l-50.8-50.8-134.2 134.1c-2.6 2.7-4.8 5.9-6.2 9.4-1.5 3.5-2.2 7.3-2.2 11 0 3.8 0.7 7.6 2.2 11.1 1.4 3.5 3.6 6.7 6.2 9.3l195.7 195.6c2.6 2.7 5.8 4.9 9.3 6.3 3.5 1.4 7.3 2.2 11.1 2.2 3.7 0 7.5-0.8 11-2.2 3.5-1.4 6.7-3.6 9.4-6.3l194.6-194.6c2.7-2.7 4.9-5.9 6.3-9.4 1.5-3.5 2.2-7.3 2.2-11 0-3.8-0.7-7.6-2.2-11.1-1.4-3.5-3.6-6.7-6.3-9.4z"/>
</svg>