<svg version="1.2" xmlns="http://www.w3.org/2000/svg" viewBox="0 0 640 512" width="640" height="512">
	<title>php-svg</title>
	<style>
		.s0 { fill: #aaaaaa } 
	</style>
	<path id="Layer" fill-rule="evenodd" class="s0" d="m640 256c0 93-143.3 168.3-320 168.3-176.7 0-320-75.3-320-168.3 0-93 143.3-168.3 320-168.3 176.7 0 320 75.3 320 168.3zm-623.2 0c0 79.3 131.8 151.5 303.2 151.5 171.3 0 303.2-72.2 303.2-151.5 0-79.3-131.8-151.5-303.2-151.5-171.3 0-303.2 72.2-303.2 151.5zm113.3-74.4h70.7c21.2 0 36.8 5.5 46.5 16.7 18.6 21.4 11.8 64.1-14.3 88.1-23.6 22.1-49.1 19.1-90.2 19.1l-8.7 44.8h-36.7zm31.7 26.6l-13.7 70.6c34.3 0 62.2 4.2 70.1-36.3 7.4-38.4-18.4-34.3-56.4-34.3zm121.3-71.5h36.5l-8.7 44.8c31.5 0 60.7-2.3 74.8 10.7 14.8 13.6 7.7 31-8.3 113.1h-37c15.4-79.4 18.3-86 12.7-92-5.4-5.8-17.7-4.6-47.4-4.6l-18.8 96.6h-36.5zm133.9 44.9h70.7c21.2 0 36.8 5.5 46.5 16.7 18.6 21.4 11.8 64.1-14.3 88.1-23.1 21.6-47 19.1-90.2 19.1l-8.7 44.8h-36.8zm31.6 26.6l-13.7 70.6c33.4 0 62.1 4.8 70.1-36.3 7.4-38.4-18.2-34.3-56.4-34.3z"/>
</svg>